<?xml version="1.0" encoding="UTF-8" standalone="no"?>
<svg
   xmlns:dc="http://purl.org/dc/elements/1.1/"
   xmlns:cc="http://creativecommons.org/ns#"
   xmlns:rdf="http://www.w3.org/1999/02/22-rdf-syntax-ns#"
   xmlns:svg="http://www.w3.org/2000/svg"
   xmlns="http://www.w3.org/2000/svg"
   id="svg4103"
   version="1.1"
   viewBox="0 0 247.91458 149.65425"
   height="149.65425mm"
   width="247.91458mm">
  <defs
     id="defs4097">
    <style
       id="style4756">
      .cls-1 {
        fill: #05ac3f;
      }

      .cls-1, .cls-2, .cls-3, .cls-4, .cls-5, .cls-6, .cls-7 {
        fill-rule: evenodd;
      }

      .cls-1, .cls-2, .cls-3, .cls-4, .cls-5, .cls-6, .cls-7, .cls-8 {
        stroke-width: 0px;
      }

      .cls-2 {
        fill: #069de0;
      }

      .cls-3 {
        fill: #6e55dc;
      }

      .cls-4 {
        fill: #fccc12;
      }

      .cls-5 {
        fill: #fff;
      }

      .cls-6 {
        fill: #ff7112;
      }

      .cls-7 {
        fill: #ef1541;
      }
    </style>
  </defs>
  <metadata
     id="metadata4100">
    <rdf:RDF>
      <cc:Work
         rdf:about="">
        <dc:format>image/svg+xml</dc:format>
        <dc:type
           rdf:resource="http://purl.org/dc/dcmitype/StillImage" />
        <dc:title></dc:title>
      </cc:Work>
    </rdf:RDF>
  </metadata>
  <g
     transform="translate(7.1450789,-6.7571023)"
     id="layer1">
    <g
       transform="matrix(7.0579275,0,0,7.0579275,43.28437,-947.52883)"
       id="g4868">
      <path
         style="fill:#ffffff;fill-rule:evenodd;stroke-width:0px"
         class="cls-5"
         d="m 27.769729,150.60642 c -0.418041,-1.40229 -1.881187,-2.88925 -3.82852,-3.048 0.997479,-0.93134 1.296458,-1.98702 1.35202,-2.76754 0.113771,-1.53988 -0.627062,-2.94746 -1.410229,-3.65919 -0.79375,-0.71702 -1.838854,-1.1139 -2.942166,-1.1139 -0.828146,0 -1.611313,0.2249 -2.288646,0.63236 0.246062,-1.00277 0.119062,-2.11138 -0.370417,-3.07975 -0.587375,-1.16417 -1.613958,-1.96057 -2.88925,-2.24367 -0.346604,-0.0794 -0.701146,-0.11906 -1.050396,-0.11906 -1.264708,0 -2.46327,0.52387 -3.286125,1.43404 -0.256645,0.2831 -0.468312,0.59531 -0.635,0.92869 -0.153458,-0.30692 -0.346604,-0.59532 -0.5767912,-0.86254 -0.8281458,-0.95515 -2.047875,-1.50019 -3.3469791,-1.50019 -0.34925,0 -0.7037917,0.0397 -1.04775,0.11906 -1.2752917,0.28575 -2.301875,1.08215 -2.8918958,2.24631 -0.4894792,0.96838 -0.6164792,2.07698 -0.3704167,3.07975 -0.6773333,-0.40746 -1.45785414,-0.63235 -2.2886458,-0.63235 -1.1033125,0 -2.1484166,0.39423 -2.9421666,1.11389 -0.7831667,0.71173 -1.524,2.11667 -1.4102292,3.65655 0.058208,0.78052 0.3545417,1.83356 1.3520208,2.76754 -1.9473333,0.16139 -3.4104791,1.64571 -3.8285207,3.048 -0.4312709,1.44462 -0.206375,2.90777 0.6164791,4.01108 0.8493125,1.14036 2.2489583,1.79388 3.8364583,1.79388 H 23.314146 c 1.5875,0 2.9845,-0.65352 3.836458,-1.79388 0.822855,-1.10331 1.045105,-2.56381 0.61648,-4.01108 z"
         id="path4760" />
      <g
         id="g4774"
         transform="matrix(0.26458333,0,0,0.26458333,-34.140124,107.46346)">
        <path
           style="fill:#6e55dc;fill-rule:evenodd;stroke-width:0px"
           class="cls-3"
           d="m 186.39,108.98 c -8.68,-1.97 -16.71,4.48 -15.81,13.33 h 5.63 c 0,0 2.62,-0.03 3.39,1.66 0,0 -8.32,3.01 -7.66,7.9 l 5.18,35.98 18.13,-41.41 c 2.77,-6.29 -0.32,-15.56 -8.85,-17.46 z"
           id="path4762" />
        <path
           style="fill:#fccc12;fill-rule:evenodd;stroke-width:0px"
           class="cls-4"
           d="m 161.57,181.24 -35.33,-23.55 c -9,-6.01 -17.89,0.11 -19.77,6.44 -2.78,9.33 3.45,17.11 13.22,17.11 h 41.89 z"
           id="path4764" />
        <path
           style="fill:#ef1541;fill-rule:evenodd;stroke-width:0px"
           class="cls-7"
           d="m 166.21,122.88 c 1.31,-9.14 -6.88,-15.91 -15.75,-13.9 -8.53,1.9 -11.62,11.17 -8.85,17.46 l 18.13,41.41 z"
           id="path4766" />
        <path
           style="fill:#ff7112;fill-rule:evenodd;stroke-width:0px"
           class="cls-6"
           d="m 158.28,174.64 -17.4,-39.65 c -4.07,-9.19 -14.86,-10.33 -20.82,-4.95 -4.19,3.8 -7.45,14.15 1.93,20.41 l 36.29,24.18 z"
           id="path4768" />
        <path
           style="fill:#05ac3f;fill-rule:evenodd;stroke-width:0px"
           class="cls-1"
           d="m 175.28,181.24 35.33,-23.55 c 9,-6.01 17.89,0.11 19.77,6.44 2.78,9.33 -3.45,17.11 -13.22,17.11 h -41.89 z"
           id="path4770" />
        <path
           style="fill:#069de0;fill-rule:evenodd;stroke-width:0px"
           class="cls-2"
           d="m 178.56,174.64 17.4,-39.65 c 4.07,-9.19 14.86,-10.33 20.82,-4.95 4.19,3.8 7.45,14.15 -1.93,20.41 l -36.29,24.18 z"
           id="path4772" />
      </g>
    </g>
  </g>
</svg>
