<!DOCTYPE svg PUBLIC "-//W3C//DTD SVG 1.1//EN" "http://www.w3.org/Graphics/SVG/1.1/DTD/svg11.dtd">
<!-- Uploaded to: SVG Repo, www.svgrepo.com, Transformed by: SVG Repo Mixer Tools -->
<svg width="256px" height="256px" viewBox="0 0 48 48" xmlns="http://www.w3.org/2000/svg" fill="#000000">
<g id="SVGRepo_bgCarrier" stroke-width="0"/>
<g id="SVGRepo_tracerCarrier" stroke-linecap="round" stroke-linejoin="round" stroke="#CCCCCC" stroke-width="3.5519999999999996">
<defs>
<style>.a{fill:none;stroke:#b93737;stroke-linecap:round;stroke-linejoin:round;}</style>
</defs>
<path class="a" d="M42.1386,15.2247l-5.8-5.8a4.6482,4.6482,0,0,0-6.5735,0L24,15.19,18.2351,9.4246a4.6482,4.6482,0,0,0-6.5735,0l-5.8,5.8a4.6483,4.6483,0,0,0,0,6.5736l5.7649,5.7648L24,39.9368,42.1386,21.7983A4.6483,4.6483,0,0,0,42.1386,15.2247Z"/>
</g>
<g id="SVGRepo_iconCarrier">
<defs>
<style>.a{fill:none;stroke:#b93737;stroke-linecap:round;stroke-linejoin:round;}</style>
</defs>
<path class="a" d="M42.1386,15.2247l-5.8-5.8a4.6482,4.6482,0,0,0-6.5735,0L24,15.19,18.2351,9.4246a4.6482,4.6482,0,0,0-6.5735,0l-5.8,5.8a4.6483,4.6483,0,0,0,0,6.5736l5.7649,5.7648L24,39.9368,42.1386,21.7983A4.6483,4.6483,0,0,0,42.1386,15.2247Z"/>
</g>
</svg>